# xmcd
#
# Track frame offsets:
#	150
#	10779
#	22440
#	34966
#	48265
#	62532
#	76417
#	89169
#	104937
#	118890
#	132263
#	153295
#
# Disc length: 2275 seconds
#
# Revision: 0
# Processed by: cddbd v1.5.1PL0 Copyright (c) Steve Scherf et al.
# Submitted via: dBpowerAMP V4.0
#
DISCID=a808e10c
DTITLE=Conway Twitty - 20th Century Masters - The Millennium Collection: The Best Of Conway Twitty
DYEAR=1999
DGENRE=Country
TTITLE0=It's Only Make Believe
TTITLE1=Hello Darlin'
TTITLE2=After The Fire Is Gone  with Loretta Lynn
TTITLE3=I Can't Stop Loving You
TTITLE4=You've Never Been This Far Before
TTITLE5=There's A Honky Tonk Angel ( Who'll Take Me Back In )
TTITLE6=Linda On My Mind
TTITLE7=Touch The Hand
TTITLE8=After All The Good Is Gone
TTITLE9=Tight Fittin' Jeans
TTITLE10=Rest Your Love On Me
TTITLE11=Crazy In Love
EXTD=
EXTT0=
EXTT1=
EXTT2=
EXTT3=
EXTT4=
EXTT5=
EXTT6=
EXTT7=
EXTT8=
EXTT9=
EXTT10=
EXTT11=
PLAYORDER=
